# xmcd
#
# Track frame offsets:
#	150
#	13384
#	25654
#	36410
#	49725
#	63829
#	78787
#	90764
#	104808
#	120766
#	136291
#	148618
#	160706
#	175400
#	187592
#	199988
#	218273
#	233457
#	250955
#	267375
#
# Disc length: 3796 seconds
#
# Revision: 1
# Processed by: cddbd v1.5.2PL0 Copyright (c) Steve Scherf et al.
# Submitted via: audiograbber 1.83.01
#
DISCID=fe0ed214
DTITLE=Dolly Parton - Here You Come Again
DYEAR=2001
DGENRE=Country
TTITLE0=Here You Come Again
TTITLE1=Jolene
TTITLE2=Love Is Like A Butterfly
TTITLE3=I Will Always Love You
TTITLE4=Two Doors Down
TTITLE5=But You Know I Love You
TTITLE6=Baby I'm Burning
TTITLE7=Coat Of Many Colors
TTITLE8=Heartbreaker
TTITLE9=Tennessee Homesick Blues
TTITLE10=The Bargain Store
TTITLE11=To Daddy
TTITLE12=Harper Valley PTA
TTITLE13=Do I Ever Cross Your Mind (With Chet Atkins)
TTITLE14=9 To 5
TTITLE15=The House Of The Rising Sun
TTITLE16=Nickles And Dimes
TTITLE17=Real Love (With Kenny Rogers)
TTITLE18=Detroit City
TTITLE19=Save The Last Dance For Me
EXTD=
EXTT0=
EXTT1=
EXTT2=
EXTT3=
EXTT4=
EXTT5=
EXTT6=
EXTT7=
EXTT8=
EXTT9=
EXTT10=
EXTT11=
EXTT12=
EXTT13=
EXTT14=
EXTT15=
EXTT16=
EXTT17=
EXTT18=
EXTT19=
PLAYORDER=
